<svg width="86" height="18" viewBox="-12 -6 141 24" fill="none" xmlns="http://www.w3.org/2000/svg">
<path d="M1.76241 17.9847C1.20813 17.9847 0.758789 17.5368 0.758789 16.9842V1.25057C0.758789 0.69797 1.20813 0.25 1.76241 0.25H3.67472C4.02388 0.25 4.34795 0.430922 4.53041 0.727715L10.0895 9.77037C10.3483 10.1913 10.0408 10.7316 9.5456 10.7261C9.05447 10.7205 8.7585 10.1815 9.01853 9.76606L14.6804 0.720846C14.8638 0.427968 15.1856 0.25 15.5319 0.25H17.3226C17.8768 0.25 18.3262 0.697969 18.3262 1.25057V16.9842C18.3262 17.5368 17.8768 17.9847 17.3226 17.9847H15.598C15.0437 17.9847 14.5944 17.5368 14.5944 16.9842V11.9803C14.5944 10.4433 14.6282 9.05825 14.6959 7.82527C14.7545 6.97199 14.8374 6.12681 14.9446 5.28971C14.9823 4.99479 15.3838 4.95427 15.4852 5.2339C15.5157 5.31823 15.505 5.41195 15.4562 5.48727L10.626 12.9414C10.4411 13.2267 10.1237 13.399 9.78299 13.399H9.18049C8.83681 13.399 8.51704 13.2237 8.33296 12.9344L3.62555 5.53513C3.57853 5.46121 3.56706 5.37022 3.59429 5.287C3.68918 4.997 4.09817 5.02803 4.13942 5.33029C4.24399 6.0964 4.31873 6.87739 4.36366 7.67325C4.44828 8.87246 4.49059 10.3081 4.49059 11.9803V16.9842C4.49059 17.5368 4.04125 17.9847 3.48697 17.9847H1.76241Z" fill="white"/>
<path d="M27.2376 17.9847C26.5304 17.9847 26.045 17.275 26.3034 16.6186L32.4969 0.885035C32.6477 0.501961 33.0183 0.25 33.4311 0.25H35.4625C35.8762 0.25 36.2475 0.503054 36.3977 0.887342L42.5462 16.6209C42.8025 17.2769 42.3172 17.9847 41.611 17.9847H39.8897C39.4717 17.9847 39.0975 17.7265 38.9504 17.3365L35.5901 8.43331C35.4886 8.14618 35.3617 7.79149 35.2093 7.36923C35.0739 6.94697 34.9301 6.49938 34.7778 6.02646C34.6254 5.55353 34.4816 5.10594 34.3462 4.68368C34.2699 4.40097 34.2007 4.15326 34.1384 3.94054C34.091 3.77842 34.2083 3.61344 34.3776 3.60718C34.5509 3.60077 34.6806 3.76376 34.6327 3.9299C34.554 4.20236 34.467 4.4874 34.3716 4.78502C34.2531 5.19039 34.1177 5.61265 33.9654 6.05179C33.83 6.49094 33.6861 6.91319 33.5338 7.31856C33.3984 7.72392 33.263 8.1124 33.1276 8.48398L29.7926 17.336C29.6455 17.7263 29.2712 17.9847 28.8531 17.9847H27.2376ZM30.5104 14.2604C29.7969 14.2604 29.3113 13.5391 29.5816 12.8808L30.0292 11.791C30.1835 11.4151 30.5505 11.1695 30.9579 11.1695H37.7141C38.119 11.1695 38.4842 11.4121 38.6402 11.7845L39.0967 12.8743C39.3728 13.5335 38.8871 14.2604 38.1706 14.2604H30.5104Z" fill="white"/>
<path d="M53.9692 17.9847C53.4149 17.9847 52.9655 17.5368 52.9655 16.9842V4.67084C52.9655 4.11824 52.5162 3.67027 51.9619 3.67027H48.8411C48.2868 3.67027 47.8375 3.2223 47.8375 2.6697V1.25057C47.8375 0.697968 48.2868 0.25 48.8411 0.25H61.101C61.6553 0.25 62.1046 0.697969 62.1046 1.25057V2.6697C62.1046 3.2223 61.6553 3.67027 61.101 3.67027H57.7771C57.2228 3.67027 56.7735 4.11824 56.7735 4.67084V16.9842C56.7735 17.5368 56.3242 17.9847 55.7699 17.9847H53.9692Z" fill="white"/>
<path d="M92.2689 17.9847C91.7146 17.9847 91.2653 17.5368 91.2653 16.9842V1.25057C91.2653 0.69797 91.7146 0.25 92.2689 0.25H99.1351C100.252 0.25 101.251 0.494909 102.131 0.984726C103.028 1.47454 103.738 2.15015 104.263 3.01155C104.788 3.85606 105.05 4.82725 105.05 5.92512C105.05 6.9892 104.788 7.95194 104.263 8.81334C103.738 9.67475 103.028 10.3588 102.131 10.8655C101.251 11.3722 100.252 11.6256 99.1351 11.6256H95.9246C95.3703 11.6256 94.9209 12.0735 94.9209 12.6261V16.9842C94.9209 17.5368 94.4716 17.9847 93.9173 17.9847H92.2689ZM101.953 17.9881C101.592 17.986 101.26 17.7909 101.083 17.4771L97.5515 11.1997C97.2107 10.594 97.5774 9.83487 98.2648 9.72277L100.05 9.43172C100.462 9.36452 100.872 9.55871 101.081 9.91933L104.887 16.4996C105.274 17.1689 104.787 18.0045 104.012 18L101.953 17.9881ZM94.9209 7.50875C94.9209 8.06135 95.3703 8.50932 95.9246 8.50932H98.9827C99.4397 8.50932 99.8374 8.40798 100.176 8.2053C100.531 7.98572 100.802 7.69014 100.988 7.31856C101.191 6.94697 101.293 6.52472 101.293 6.05179C101.293 5.56198 101.174 5.13128 100.938 4.75969C100.701 4.37121 100.371 4.07564 99.9474 3.87295C99.5243 3.65338 99.0335 3.54359 98.475 3.54359H95.9245C95.3703 3.54359 94.9209 3.99156 94.9209 4.54416V7.50875Z" fill="white"/>
<path d="M113.381 17.9847C112.674 17.9847 112.188 17.275 112.447 16.6186L118.64 0.885035C118.791 0.501961 119.162 0.25 119.574 0.25H121.606C122.019 0.25 122.391 0.503054 122.541 0.887342L128.689 16.6209C128.946 17.2769 128.46 17.9847 127.754 17.9847H126.033C125.615 17.9847 125.241 17.7265 125.094 17.3365L121.733 8.43331C121.632 8.14618 121.505 7.79149 121.353 7.36923C121.217 6.94697 121.073 6.49938 120.921 6.02646C120.769 5.55353 120.625 5.10594 120.489 4.68368C120.413 4.40097 120.344 4.15326 120.282 3.94054C120.234 3.77842 120.352 3.61344 120.521 3.60718C120.694 3.60077 120.824 3.76376 120.776 3.9299C120.697 4.20236 120.61 4.4874 120.515 4.78502C120.396 5.19039 120.261 5.61265 120.109 6.05179C119.973 6.49094 119.829 6.91319 119.677 7.31856C119.542 7.72392 119.406 8.1124 119.271 8.48398L115.936 17.336C115.789 17.7263 115.414 17.9847 114.996 17.9847H113.381ZM116.654 14.2604C115.94 14.2604 115.454 13.5391 115.725 12.8808L116.172 11.791C116.327 11.4151 116.694 11.1695 117.101 11.1695H123.857C124.262 11.1695 124.627 11.4121 124.783 11.7845L125.24 12.8743C125.516 13.5335 125.03 14.2604 124.314 14.2604H116.654Z" fill="white"/>
<circle cx="75.9485" cy="9" r="2.8125" transform="rotate(-90 75.9485 9)" fill="white"/>
<path d="M81.4309 11.7422C83.16 11.7422 84.5618 13.143 84.5618 14.8711C84.5618 16.5991 83.16 18 81.4309 18C80.3674 18 78.9023 16.879 78.9023 16.879C78.9023 16.879 76.6469 15.0232 75.937 15.0232C75.2272 15.0232 73.9536 16.0612 72.9502 16.879C72.2068 17.4846 71.4772 18 70.4661 18C68.737 18 67.3352 16.5991 67.3352 14.8711C67.3352 13.143 68.737 11.7422 70.4661 11.7422C71.4211 11.7422 72.238 12.2809 72.9502 12.8632C73.9537 13.6811 75.2272 14.719 75.937 14.719C76.6415 14.719 78.9023 12.8948 78.9023 12.8948C78.9023 12.8948 80.3194 11.7422 81.4309 11.7422Z" fill="white"/>
<path d="M81.4309 -1.36855e-07C83.16 -6.12722e-08 84.5618 1.40086 84.5618 3.12891C84.5618 4.85695 83.16 6.25781 81.4309 6.25781C80.3674 6.25781 78.9023 5.13684 78.9023 5.13684C78.9023 5.13684 76.6469 3.28105 75.937 3.28105C75.2272 3.28105 73.9536 4.31898 72.9502 5.13684C72.2068 5.74246 71.4772 6.25781 70.4661 6.25781C68.737 6.25781 67.3352 4.85695 67.3352 3.1289C67.3352 1.40086 68.737 -6.91725e-07 70.4661 -6.16142e-07C71.4211 -5.74399e-07 72.238 0.538684 72.9502 1.12102C73.9537 1.93893 75.2272 2.97681 75.937 2.97681C76.6415 2.97681 78.9023 1.15258 78.9023 1.15258C78.9023 1.15258 80.3194 -1.8544e-07 81.4309 -1.36855e-07Z" fill="white"/>
</svg>
